<svg xmlns="http://www.w3.org/2000/svg" width="73" height="23" viewBox="0 0 73 23" fill="none">
<path d="M0.644 13.583C0.644 12.249 0.912333 11.0837 1.449 10.087C2.001 9.09033 2.76 8.32367 3.726 7.787C4.70733 7.25033 5.82667 6.982 7.084 6.982C8.694 6.982 10.0357 7.40367 11.109 8.247C12.1977 9.09033 12.9107 10.2787 13.248 11.812H9.062C8.70933 10.8307 8.027 10.34 7.015 10.34C6.29433 10.34 5.71933 10.6237 5.29 11.191C4.86067 11.743 4.646 12.5403 4.646 13.583C4.646 14.6257 4.86067 15.4307 5.29 15.998C5.71933 16.55 6.29433 16.826 7.015 16.826C8.027 16.826 8.70933 16.3353 9.062 15.354H13.248C12.9107 16.8567 12.1977 18.0373 11.109 18.896C10.0203 19.7547 8.67867 20.184 7.084 20.184C5.82667 20.184 4.70733 19.9157 3.726 19.379C2.76 18.8423 2.001 18.0757 1.449 17.079C0.912333 16.0823 0.644 14.917 0.644 13.583ZM14.5698 13.56C14.5698 12.2413 14.8151 11.0837 15.3058 10.087C15.8118 9.09033 16.4941 8.32367 17.3528 7.787C18.2114 7.25033 19.1698 6.982 20.2278 6.982C21.1324 6.982 21.9221 7.166 22.5968 7.534C23.2868 7.902 23.8158 8.385 24.1838 8.983V7.166H28.1168V20H24.1838V18.183C23.8004 18.781 23.2638 19.264 22.5738 19.632C21.8991 20 21.1094 20.184 20.2048 20.184C19.1621 20.184 18.2114 19.9157 17.3528 19.379C16.4941 18.827 15.8118 18.0527 15.3058 17.056C14.8151 16.044 14.5698 14.8787 14.5698 13.56ZM24.1838 13.583C24.1838 12.6017 23.9078 11.8273 23.3558 11.26C22.8191 10.6927 22.1598 10.409 21.3778 10.409C20.5958 10.409 19.9288 10.6927 19.3768 11.26C18.8401 11.812 18.5718 12.5787 18.5718 13.56C18.5718 14.5413 18.8401 15.3233 19.3768 15.906C19.9288 16.4733 20.5958 16.757 21.3778 16.757C22.1598 16.757 22.8191 16.4733 23.3558 15.906C23.9078 15.3387 24.1838 14.5643 24.1838 13.583ZM34.8951 9.305C35.3551 8.59967 35.9301 8.04767 36.6201 7.649C37.3101 7.235 38.0768 7.028 38.9201 7.028V11.191H37.8391C36.8578 11.191 36.1218 11.4057 35.6311 11.835C35.1405 12.249 34.8951 12.985 34.8951 14.043V20H30.9621V7.166H34.8951V9.305ZM47.953 16.665V20H45.952C44.526 20 43.4144 19.655 42.617 18.965C41.8197 18.2597 41.421 17.1173 41.421 15.538V10.432H39.857V7.166H41.421V4.038H45.354V7.166H47.93V10.432H45.354V15.584C45.354 15.9673 45.446 16.2433 45.63 16.412C45.814 16.5807 46.1207 16.665 46.55 16.665H47.953ZM62.2418 13.376C62.2418 13.744 62.2188 14.1273 62.1728 14.526H53.2718C53.3331 15.3233 53.5861 15.9367 54.0308 16.366C54.4908 16.78 55.0504 16.987 55.7098 16.987C56.6911 16.987 57.3734 16.573 57.7568 15.745H61.9428C61.7281 16.5883 61.3371 17.3473 60.7698 18.022C60.2178 18.6967 59.5201 19.2257 58.6768 19.609C57.8334 19.9923 56.8904 20.184 55.8478 20.184C54.5904 20.184 53.4711 19.9157 52.4898 19.379C51.5084 18.8423 50.7418 18.0757 50.1898 17.079C49.6378 16.0823 49.3618 14.917 49.3618 13.583C49.3618 12.249 49.6301 11.0837 50.1668 10.087C50.7188 9.09033 51.4854 8.32367 52.4668 7.787C53.4481 7.25033 54.5751 6.982 55.8478 6.982C57.0898 6.982 58.1938 7.24267 59.1598 7.764C60.1258 8.28533 60.8771 9.029 61.4138 9.995C61.9658 10.961 62.2418 12.088 62.2418 13.376ZM58.2168 12.341C58.2168 11.6663 57.9868 11.1297 57.5268 10.731C57.0668 10.3323 56.4918 10.133 55.8018 10.133C55.1424 10.133 54.5828 10.3247 54.1228 10.708C53.6781 11.0913 53.4021 11.6357 53.2948 12.341H58.2168ZM71.4696 16.665V20H69.4686C68.0426 20 66.931 19.655 66.1336 18.965C65.3363 18.2597 64.9376 17.1173 64.9376 15.538V10.432H63.3736V7.166H64.9376V4.038H68.8706V7.166H71.4466V10.432H68.8706V15.584C68.8706 15.9673 68.9626 16.2433 69.1466 16.412C69.3306 16.5807 69.6373 16.665 70.0666 16.665H71.4696Z" fill="black"/>
</svg>